<?xml version="1.0" encoding="iso-8859-1"?>
<!-- Generator: Adobe Illustrator 19.0.0, SVG Export Plug-In . SVG Version: 6.00 Build 0)  -->
<svg version="1.1" id="Layer_1" xmlns="http://www.w3.org/2000/svg" xmlns:xlink="http://www.w3.org/1999/xlink" x="0px" y="0px"
	 viewBox="0 0 290.626 290.626" style="enable-background:new 0 0 290.626 290.626;" xml:space="preserve">
<g>
	<g>
		<circle style="fill:#F9BA48;" cx="243.75" cy="164.456" r="18.75"/>
		<circle style="fill:#F9BA48;" cx="46.875" cy="164.456" r="18.75"/>
		<path style="fill:#333333;" d="M251.217,118.234L165.385,10.956c-5.363-6.713-13.364-10.561-21.961-10.561h-21.548v4.688
			c0,19.191,6.544,38.048,18.436,53.105l46.889,59.395H90.877l4.031-12.084l-15.136-6.056c-2.002-0.797-3.52-2.344-4.284-4.359
			c-0.769-2.011-0.661-4.181,0.305-6.108c1.298-2.592,3.909-4.205,6.806-4.205h14.048l5.981-11.967l5.958-23.358L83.452,36.878
			L66.459,53.865l-32.827,65.653C14.222,125.246,0,143.214,0,164.456c0,25.847,21.028,46.875,46.875,46.875h156.516l-34.641,20.784
			v8.437l-23.438-14.063v28.125l-23.438-14.063v23.438l-23.438-14.063v23.438L75,259.304v15.145l-11.977,7.983l5.198,7.8
			l16.153-10.767v-3.605l23.438,14.063v-23.438l23.438,14.063v-23.438l23.438,14.063v-28.125l23.438,14.063v-19.688l43.486-26.091
			h22.139c25.847,0,46.875-21.028,46.875-46.875C290.625,141.161,273.516,121.829,251.217,118.234z M147.67,52.375
			c-9.619-12.178-15.314-27.155-16.275-42.605h12.023c5.733,0,11.063,2.564,14.639,7.041l80.625,100.772h-39.53L147.67,52.375z
			 M74.166,59.425l11.133-11.137l12.366,6.183l-3.648,14.6l-3.164,6.323h-8.255c-6.473,0-12.291,3.6-15.188,9.389
			c-2.119,4.233-2.367,9.206-0.684,13.636c1.678,4.425,5.17,7.969,9.567,9.727l6.923,2.77l-2.222,6.666h-34.12
			c-0.619,0-1.223,0.07-1.838,0.094L74.166,59.425z M243.75,201.956H46.875c-20.677,0-37.5-16.823-37.5-37.5s16.823-37.5,37.5-37.5
			H243.75c20.677,0,37.5,16.823,37.5,37.5S264.427,201.956,243.75,201.956z"/>
		
			<rect x="175.778" y="30.354" transform="matrix(0.7743 -0.6328 0.6328 0.7743 0.4414 128.5686)" style="fill:#333333;" width="9.375" height="66.622"/>
		<rect x="196.875" y="159.77" style="fill:#333333;" width="9.375" height="9.375"/>
		<rect x="84.375" y="159.77" style="fill:#333333;" width="103.125" height="9.375"/>
	</g>
</g>
<g>
</g>
<g>
</g>
<g>
</g>
<g>
</g>
<g>
</g>
<g>
</g>
<g>
</g>
<g>
</g>
<g>
</g>
<g>
</g>
<g>
</g>
<g>
</g>
<g>
</g>
<g>
</g>
<g>
</g>
</svg>
